<svg width="40" height="40" viewBox="0 0 40 40" fill="none" xmlns="http://www.w3.org/2000/svg">
<path d="M2 8C0.9 8 0 8.9 0 10V36C0 38.2 1.8 40 4 40H30C31.1 40 32 39.1 32 38C32 36.9 31.1 36 30 36H6C4.9 36 4 35.1 4 34V10C4 8.9 3.1 8 2 8ZM36 0H12C9.8 0 8 1.8 8 4V28C8 30.2 9.8 32 12 32H36C38.2 32 40 30.2 40 28V4C40 1.8 38.2 0 36 0ZM32 18H26V24C26 25.1 25.1 26 24 26C22.9 26 22 25.1 22 24V18H16C14.9 18 14 17.1 14 16C14 14.9 14.9 14 16 14H22V8C22 6.9 22.9 6 24 6C25.1 6 26 6.9 26 8V14H32C33.1 14 34 14.9 34 16C34 17.1 33.1 18 32 18Z" fill="#8B9E84"/>
</svg>
