<svg width="60" height="60" viewBox="0 0 60 60" fill="none" xmlns="http://www.w3.org/2000/svg">
<path d="M60 30.0274C60 46.5808 46.5808 60.0001 30.0273 60.0001C13.4739 60.0001 0.0546875 46.5808 0.0546875 30.0274C0.0546875 13.474 13.4739 0.0547464 30.0273 0.0547464C46.5808 0.0547464 60 13.474 60 30.0274Z" fill="#5A7590"/>
<path d="M60 30.0274C60 46.5808 46.5808 60.0001 30.0273 60.0001C13.4739 60.0001 0.0546875 46.5808 0.0546875 30.0274C0.0546875 13.474 13.4739 0.0547464 30.0273 0.0547464C46.5808 0.0547464 60 13.474 60 30.0274Z" fill="#828894"/>
<path d="M52.8395 30.0664C52.8395 42.6622 42.6286 52.873 30.0329 52.873C17.4372 52.873 7.22629 42.6622 7.22629 30.0664C7.22629 17.4707 17.4372 7.25981 30.0329 7.25981C42.6286 7.25981 52.8395 17.4707 52.8395 30.0664Z" fill="#5A7590"/>
<path d="M52.8395 30.0664C52.8395 42.6622 42.6286 52.873 30.0329 52.873C17.4372 52.873 7.22629 42.6622 7.22629 30.0664C7.22629 17.4707 17.4372 7.25981 30.0329 7.25981C42.6286 7.25981 52.8395 17.4707 52.8395 30.0664Z" fill="#DFDFDF"/>
<path d="M30.3856 12.898C29.1884 12.898 28.2178 13.8686 28.2195 15.0641L28.2195 28.2196L15.064 28.2196C13.8668 28.2196 12.8962 29.1902 12.8979 30.3857C12.8979 31.5829 13.8685 32.5535 15.064 32.5519L28.2195 32.5519L28.2195 45.7074C28.2195 46.9045 29.1901 47.8751 30.3856 47.8735C30.9842 47.8735 31.5249 47.6304 31.9168 47.2385C32.3087 46.8466 32.5517 46.3059 32.5517 45.7074L32.5517 32.5519L45.7072 32.5519C46.3058 32.5519 46.8465 32.3088 47.2384 31.9169C47.6303 31.525 47.8733 30.9843 47.8733 30.3857C47.8733 29.1886 46.9027 28.218 45.7072 28.2196L32.5517 28.2196L32.5517 15.0641C32.5517 13.867 31.5811 12.8964 30.3856 12.898Z" fill="#595959"/>
</svg>
