<svg width="17" height="18" viewBox="0 0 17 18" fill="none" xmlns="http://www.w3.org/2000/svg">
<path d="M16.1357 9.02262L9.45332 15.6202C8.52571 16.5126 7.27945 17.0082 5.98439 16.9999C4.68932 16.9916 3.4497 16.4799 2.53393 15.5758C1.61816 14.6716 1.09996 13.4477 1.09154 12.1691C1.08311 10.8904 1.58513 9.65998 2.4889 8.74414L9.37091 1.94939C9.9866 1.34151 10.8217 1 11.6924 1C12.5631 1 13.3982 1.34151 14.0139 1.94939C14.6295 2.55728 14.9754 3.38175 14.9754 4.24143C14.9754 5.10111 14.6295 5.92558 14.0139 6.53347L7.33033 13.1322C7.02249 13.4362 6.60496 13.6069 6.1696 13.6069C5.73424 13.6069 5.31671 13.4362 5.00886 13.1322C4.70102 12.8283 4.52807 12.4161 4.52807 11.9862C4.52807 11.5564 4.70102 11.1441 5.00886 10.8402L11.4927 4.43854" stroke="black"/>
</svg>
