<svg width="34" height="40" viewBox="0 0 34 40" fill="none" xmlns="http://www.w3.org/2000/svg">
<g clip-path="url(#clip0_2451_9266)">
<path d="M32.5401 28.3543L29.7883 24.5018C29.3818 23.9334 29.1678 23.2644 29.1678 22.5647V12.8057C29.166 5.94783 23.9411 0.329122 17.2683 0.0143736C13.8114 -0.152893 10.5344 1.07373 8.03971 3.45502C5.54147 5.83811 4.16734 9.05035 4.16734 12.5V22.5647C4.16734 23.2644 3.95331 23.9334 3.54683 24.5018L0.794978 28.3543C0.275185 29.0827 0 29.9388 0 30.8327C0 33.1834 1.9119 35.0971 4.26267 35.0971H29.0707C31.4214 35.0971 33.3333 33.1852 33.3333 30.8327C33.3333 29.9388 33.0581 29.0827 32.5384 28.3561L32.5401 28.3543ZM29.0707 31.7626H4.26267C3.75007 31.7626 3.33279 31.3453 3.33279 30.8327C3.33279 30.6385 3.39215 30.4514 3.50546 30.2931L6.25731 26.4406C7.07027 25.3021 7.49834 23.964 7.49834 22.5647V12.5C7.49834 9.96941 8.50735 7.61329 10.3383 5.86689C12.0614 4.22301 14.2916 3.33272 16.6622 3.33272C16.8115 3.33272 16.9607 3.33632 17.11 3.34351C22.0004 3.57373 25.8314 7.7302 25.8314 12.8057V22.5647C25.8314 23.9622 26.2613 25.3021 27.0724 26.4388L29.8243 30.2914C29.9376 30.4496 29.9969 30.6367 29.9969 30.8309C29.9969 31.3435 29.5797 31.7608 29.0671 31.7608L29.0707 31.7626Z" fill="#595959"/>
<path d="M20.8331 36.6672H12.5002C11.5793 36.6672 10.8329 37.4136 10.8329 38.3345C10.8329 39.2554 11.5793 40.0018 12.5002 40.0018H20.8331C21.7539 40.0018 22.5004 39.2554 22.5004 38.3345C22.5004 37.4136 21.7539 36.6672 20.8331 36.6672Z" fill="#595959"/>
</g>
<defs>
<clipPath id="clip0_2451_9266">
<rect width="33.3333" height="40" fill="white"/>
</clipPath>
</defs>
</svg>
