<svg width="22" height="21" viewBox="0 0 22 21" fill="none" xmlns="http://www.w3.org/2000/svg">
<path d="M10.3864 14.7779C10.3256 14.7779 10.2648 14.7685 10.204 14.7498C9.96563 14.6703 9.80435 14.4483 9.80435 14.1982V11.7135H8.57018C8.34812 11.7135 8.14944 11.5896 8.04893 11.3909C7.95076 11.1922 7.97179 10.9585 8.10503 10.7808L11.3237 6.5267C11.4826 6.31634 11.7561 6.2392 12.0015 6.33737C12.247 6.43554 12.3942 6.67864 12.3638 6.94043L12.1067 9.28255H13.5746C13.7944 9.28255 13.993 9.40409 14.0935 9.60044C14.1941 9.79678 14.173 10.0305 14.0421 10.2082L10.8539 14.5394C10.7417 14.6914 10.5687 14.7779 10.3864 14.7779ZM9.28076 10.7785H10.1596C10.4799 10.7785 10.7417 11.0403 10.7417 11.3605V13.1206L12.8781 10.2222H11.714C11.5481 10.2222 11.3915 10.1521 11.2816 10.0282C11.1717 9.9043 11.118 9.74068 11.1367 9.57706L11.298 8.1185L9.28076 10.7785Z" fill="#C89869"/>
<path d="M12.7661 21.0001H9.22956C8.96777 21.0001 8.75273 20.7944 8.7387 20.5349L8.58677 18.3775C7.4087 18.0105 6.32413 17.3817 5.4172 16.5379L3.46544 17.4893C3.35792 17.5454 3.23403 17.557 3.11482 17.5267C2.9886 17.4916 2.88341 17.4121 2.81797 17.2976L1.05086 14.2355C0.985414 14.121 0.966714 13.9901 1.00178 13.8639C1.0345 13.7447 1.10696 13.6465 1.20747 13.5787L3.00262 12.3679C2.86238 11.7579 2.78992 11.1314 2.78992 10.5003C2.78992 9.89024 2.8577 9.28251 2.99094 8.69114L1.20747 7.48969C1.10462 7.42425 1.03216 7.32374 1.00178 7.20453C0.966714 7.0783 0.985414 6.94507 1.05086 6.83287L2.81797 3.77316C2.94886 3.54643 3.23403 3.46462 3.46544 3.5815L5.37279 4.5118C6.2914 3.64461 7.39234 2.99947 8.59378 2.62782L8.74104 0.538149C8.75506 0.278693 8.97011 0.072998 9.2319 0.072998H12.7661C13.0279 0.072998 13.2429 0.278693 13.257 0.538149L13.4019 2.60444C13.4066 2.60678 13.4112 2.60678 13.4159 2.60912C13.6917 2.69093 13.9652 2.7891 14.2293 2.9013L13.867 3.76382C13.6333 3.66564 13.3902 3.57916 13.1448 3.50436C13.0513 3.47631 12.9531 3.44826 12.8573 3.42489C12.6516 3.37346 12.5043 3.19582 12.4903 2.98311L12.3524 1.01031H9.64563L9.50538 3.00415C9.49136 3.21218 9.3441 3.38982 9.14308 3.44359C7.8832 3.78018 6.73084 4.4557 5.81223 5.39301C5.66497 5.54494 5.4359 5.58468 5.24657 5.49118L3.42336 4.60296L2.06765 6.94273L3.7693 8.09042C3.94228 8.20729 4.02175 8.42233 3.96799 8.62335C3.8067 9.23342 3.72489 9.86687 3.72489 10.5027C3.72489 11.1571 3.81138 11.8069 3.98201 12.4334C4.03811 12.6367 3.95864 12.8518 3.78333 12.9687L2.06765 14.128L3.42103 16.4725L5.28864 15.5632C5.47797 15.472 5.70237 15.5094 5.85196 15.659C6.76123 16.5753 7.89722 17.2345 9.1384 17.5664C9.34176 17.6202 9.48668 17.7978 9.50071 18.0058L9.64563 20.0675H12.3524L12.495 18.0269C12.509 17.8165 12.6586 17.6389 12.8619 17.5851C14.1195 17.2625 15.2718 16.6034 16.1975 15.6824C16.3447 15.5352 16.5715 15.4978 16.7585 15.5889L18.5746 16.4725L19.928 14.128L18.2778 13.0131C18.1025 12.8939 18.023 12.6788 18.0791 12.4755C18.2591 11.835 18.3479 11.1712 18.3479 10.5027C18.3479 9.85285 18.2614 9.20537 18.0931 8.58128C18.0394 8.37792 18.1188 8.16288 18.2918 8.046L19.928 6.9404L18.5746 4.59828L16.8029 5.4608C16.6135 5.55429 16.3868 5.51456 16.2395 5.36496C15.8352 4.95591 15.384 4.59594 14.8979 4.29208L15.3934 3.49968C15.8515 3.78485 16.2816 4.11677 16.6766 4.48608L18.5326 3.5815C18.764 3.46462 19.0491 3.54643 19.18 3.77316L20.9471 6.83521C21.0126 6.94975 21.0313 7.08064 20.9962 7.20686C20.9635 7.32607 20.8911 7.42425 20.7905 7.49203L19.0772 8.64906C19.2174 9.2568 19.2876 9.87856 19.2876 10.505C19.2876 11.1525 19.2128 11.7929 19.0655 12.417L20.7929 13.5834C20.8957 13.6488 20.9682 13.7494 20.9986 13.8686C21.0336 13.9948 21.0149 14.128 20.9495 14.2426L19.1824 17.3046C19.0515 17.5313 18.7663 17.6131 18.5349 17.4963L16.6322 16.5706C15.7089 17.4215 14.6057 18.0526 13.4089 18.4102L13.2593 20.542C13.2406 20.7944 13.0279 21.0001 12.7661 21.0001Z" fill="#C89869"/>
</svg>
