<svg width="34" height="34" viewBox="0 0 34 34" fill="none" xmlns="http://www.w3.org/2000/svg">
<g clip-path="url(#clip0_2184_1075)">
<path d="M29.75 4.95782H25.7507L24.7035 2.34209C24.0568 0.591637 23.1854 0 21.25 0H12.75C10.8146 0 9.94317 0.591637 9.30872 2.30692L8.24775 4.95782H4.24847C1.90639 4.95782 0 6.86421 0 9.20782V29.75C0 32.0936 1.90638 34 4.25 34H29.75C32.0936 34 34 32.0936 34 29.75V9.20782C34 6.86421 32.0936 4.95782 29.75 4.95782ZM31.1656 29.75C31.1656 30.5312 30.5297 31.1672 29.7485 31.1672H4.25C3.4688 31.1672 2.83282 30.5312 2.83282 29.75V9.20782C2.83282 8.42662 3.4688 7.79065 4.25 7.79065H9.20782C9.78723 7.79065 10.307 7.4375 10.5241 6.89937L11.9535 3.32356C12.0483 3.0652 12.1094 2.93525 12.1446 2.87257C12.2241 2.85576 12.3999 2.83282 12.7485 2.83282H21.2485C21.5986 2.83282 21.7728 2.85576 21.8523 2.87257C21.889 2.93831 21.9517 3.07437 22.0572 3.35872L23.4744 6.9009C23.6899 7.43903 24.2112 7.79218 24.7906 7.79218H29.7485C30.5297 7.79218 31.1656 8.42815 31.1656 9.20935V29.7515V29.75Z" fill="#595959"/>
<path d="M17 10.625C12.3128 10.625 8.5 14.4378 8.5 19.125C8.5 23.8122 12.3128 27.625 17 27.625C21.6872 27.625 25.5 23.8122 25.5 19.125C25.5 14.4378 21.6872 10.625 17 10.625ZM17 24.7906C13.8752 24.7906 11.3328 22.2483 11.3328 19.1235C11.3328 15.9987 13.8752 13.4563 17 13.4563C20.1248 13.4563 22.6672 15.9987 22.6672 19.1235C22.6672 22.2483 20.1248 24.7906 17 24.7906Z" fill="#595959"/>
</g>
<defs>
<clipPath id="clip0_2184_1075">
<rect width="34" height="34" fill="white"/>
</clipPath>
</defs>
</svg>
