<svg width="40" height="40" viewBox="0 0 40 40" fill="none" xmlns="http://www.w3.org/2000/svg">
<g clip-path="url(#clip0_2453_9633)">
<path d="M20 0C8.97122 0 0 8.97122 0 20C0 31.0288 8.97122 40 20 40C31.0288 40 40 31.0288 40 20C40 8.97122 31.0288 0 20 0ZM20 36.6655C10.8112 36.6655 3.33273 29.1889 3.33273 19.9982C3.33273 10.8076 10.8094 3.33273 20 3.33273C29.1906 3.33273 36.6673 10.8094 36.6673 20C36.6673 29.1906 29.1906 36.6673 20 36.6673V36.6655Z" fill="#666666"/>
<path d="M28.8219 12.1547L17.5 23.4766L12.8453 18.822C12.1942 18.1709 11.1385 18.1709 10.4892 18.822C9.83812 19.473 9.83812 20.5288 10.4892 21.1781L16.3219 27.0108C16.6475 27.3363 17.0737 27.4982 17.5 27.4982C17.9262 27.4982 18.3525 27.3363 18.678 27.0108L31.178 14.5108C31.8291 13.8597 31.8291 12.804 31.178 12.1547C30.527 11.5036 29.4712 11.5036 28.8219 12.1547Z" fill="#666666"/>
</g>
<defs>
<clipPath id="clip0_2453_9633">
<rect width="40" height="40" fill="white"/>
</clipPath>
</defs>
</svg>
