<svg width="19" height="17" viewBox="0 0 19 17" fill="none" xmlns="http://www.w3.org/2000/svg">
<path d="M12.522 4.0254C11.9386 4.02504 11.3577 4.10343 10.7951 4.25843C10.5731 3.89555 10.3033 3.56423 9.99308 3.27338L10.8037 2.11506C10.8551 2.04158 10.8915 1.95869 10.9109 1.87111C10.9302 1.78354 10.9322 1.69299 10.9167 1.60465C10.9011 1.51632 10.8683 1.43191 10.8202 1.35626C10.7721 1.2806 10.7096 1.21518 10.6362 1.16373C10.5628 1.11228 10.48 1.0758 10.3926 1.05639C10.3051 1.03697 10.2147 1.03499 10.1265 1.05057C10.0383 1.06614 9.95402 1.09897 9.87847 1.14716C9.80293 1.19536 9.7376 1.25798 9.68622 1.33146L8.87563 2.48893C8.20905 2.15188 7.47269 1.97644 6.72597 1.97678H6.57765L6.33132 0.586273C6.31839 0.49567 6.28741 0.408593 6.24021 0.330218C6.19301 0.251843 6.13056 0.183769 6.05658 0.130042C5.98259 0.0763148 5.89857 0.0380304 5.80951 0.017464C5.72046 -0.00310235 5.62819 -0.0055311 5.53817 0.0103222C5.44816 0.0261756 5.36225 0.0599874 5.28555 0.109748C5.20884 0.159509 5.14291 0.224204 5.09167 0.299988C5.04042 0.375772 5.00492 0.461099 4.98725 0.550897C4.96959 0.640696 4.97013 0.733134 4.98885 0.822719L5.23433 2.21749C4.47807 2.46798 3.79628 2.9037 3.25088 3.48507L2.08996 2.6716C2.01665 2.61888 1.93361 2.58127 1.84567 2.56093C1.75773 2.5406 1.66663 2.53795 1.57766 2.55314C1.48869 2.56833 1.40361 2.60105 1.32736 2.64942C1.25112 2.69779 1.18522 2.76083 1.13349 2.8349C1.08176 2.90896 1.04522 2.99257 1.026 3.08089C1.00678 3.1692 1.00526 3.26045 1.02153 3.34936C1.03779 3.43827 1.07152 3.52305 1.12075 3.59881C1.16999 3.67456 1.23375 3.73977 1.30834 3.79066L2.46415 4.60328C2.12639 5.27069 1.95114 6.00867 1.95273 6.75689V6.90371L0.564229 7.14954C0.396166 7.17903 0.245246 7.27054 0.141263 7.40601C0.0372804 7.54148 -0.0122101 7.71107 0.00256168 7.8813C0.0173334 8.05152 0.095294 8.21002 0.221053 8.3255C0.346813 8.44097 0.511233 8.50504 0.681855 8.50505C0.721571 8.5051 0.761214 8.50167 0.800334 8.49481L2.19139 8.24897C2.31358 8.62164 2.48135 8.97773 2.69088 9.30913C2.03864 9.91583 1.58394 10.7052 1.38599 11.5743C1.18805 12.4435 1.25602 13.3522 1.58107 14.1821C1.90612 15.012 2.47318 15.7247 3.20841 16.2273C3.94363 16.7299 4.81294 16.9992 5.70313 17H12.522C14.2401 17 15.8878 16.3165 17.1026 15.0999C18.3175 13.8833 19 12.2332 19 10.5127C19 8.79216 18.3175 7.14209 17.1026 5.92548C15.8878 4.70888 14.2401 4.0254 12.522 4.0254ZM3.31651 6.75689C3.31692 6.03378 3.54657 5.32946 3.97236 4.74544C4.39815 4.16143 4.99809 3.72787 5.68574 3.50725C6.37339 3.28662 7.11322 3.29033 7.79863 3.51784C8.48404 3.74534 9.07962 4.18489 9.49956 4.77314C8.10857 5.50621 7.02996 6.7192 6.46344 8.18751C5.56704 8.03256 4.64475 8.1568 3.82111 8.54346C3.49135 8.00605 3.31669 7.38766 3.31651 6.75689ZM12.522 15.6343H5.70313C5.28345 15.6335 4.86838 15.5465 4.4836 15.3787C4.09882 15.2109 3.75251 14.9658 3.46607 14.6586C3.17963 14.3514 2.95916 13.9887 2.81829 13.5928C2.67742 13.1969 2.61914 12.7762 2.64706 12.3569C2.67499 11.9375 2.78851 11.5284 2.98062 11.1547C3.17273 10.781 3.43934 10.4508 3.76396 10.1844C4.08859 9.91804 4.46433 9.72118 4.86795 9.60601C5.27157 9.49084 5.69449 9.45982 6.11056 9.51485C6.07902 9.71715 6.05686 9.92372 6.04493 10.132C6.03453 10.3131 6.0964 10.4909 6.21692 10.6264C6.33745 10.7618 6.50676 10.8437 6.68761 10.8541C6.86846 10.8645 7.04603 10.8026 7.18126 10.6819C7.31649 10.5612 7.39831 10.3916 7.40871 10.2105C7.42789 9.86993 7.48158 9.53216 7.56895 9.20243C7.56895 9.18878 7.57662 9.17512 7.57918 9.16146C7.82981 8.23911 8.33295 7.4053 9.03178 6.75418C9.73061 6.10306 10.5973 5.66057 11.534 5.47667C12.4707 5.29277 13.44 5.37479 14.3326 5.71347C15.2252 6.05215 16.0055 6.63399 16.5853 7.3933C17.1652 8.15261 17.5215 9.05914 17.614 10.0105C17.7066 10.9619 17.5317 11.9203 17.1091 12.7774C16.6865 13.6345 16.033 14.3562 15.2224 14.861C14.4119 15.3658 13.4766 15.6337 12.522 15.6343Z" fill="#F6D67C"/>
</svg>
