<svg width="29" height="33" viewBox="0 0 29 33" fill="none" xmlns="http://www.w3.org/2000/svg">
<path d="M1 21.8V6.19995M21.8 6.19995V21.8" stroke="#EDE9E4" stroke-width="1.5" stroke-linecap="round"/>
<path d="M21.8 14C21.8 16.873 17.1434 19.2 11.4 19.2C5.6566 19.2 1 16.873 1 14M21.8 21.8C21.8 24.673 17.1434 27 11.4 27C5.6566 27 1 24.673 1 21.8M11.4 11.4C17.1434 11.4 21.8 9.073 21.8 6.2C21.8 3.327 17.1434 1 11.4 1C5.6566 1 1 3.327 1 6.2C1 9.073 5.6566 11.4 11.4 11.4Z" stroke="#EDE9E4" stroke-width="1.5"/>
<circle cx="22" cy="26" r="6.5" fill="#FEF3EB" stroke="#EDE9E4"/>
<path d="M22.7419 22.5633L22.0991 25.9024L24.4277 25.9102L21.258 30.4368L21.9008 26.7633L19.5723 26.7552L22.7419 22.5633ZM22.7423 22C22.7269 22 22.7116 22.0006 22.6965 22.0017C22.5959 22.0097 22.5292 22.043 22.4502 22.0955C22.4057 22.1248 22.3656 22.1602 22.331 22.2005C22.3206 22.2127 22.3108 22.2252 22.3016 22.2383L19.1093 26.4156C18.9832 26.5864 18.9647 26.8119 19.0616 27.0003C19.1583 27.1887 19.3538 27.3081 19.5682 27.3097L21.2127 27.3215L20.6957 30.3333C20.6466 30.5922 20.7861 30.8502 21.0318 30.9541C21.1032 30.9844 21.1802 31.0001 21.2579 31C21.4369 31 21.584 30.9172 21.6944 30.7676L24.8908 26.241C25.0168 26.0701 25.0352 25.8444 24.9385 25.6562C24.8418 25.4678 24.6462 25.3484 24.4318 25.3468L22.7873 25.344L23.2988 22.6958C23.3096 22.6525 23.3151 22.608 23.315 22.5633C23.315 22.2586 23.0696 22.0101 22.7625 22.0003C22.7557 22 22.749 22 22.7423 22L22.7423 22Z" fill="#ECCCB6"/>
</svg>
