<svg width="34" height="37" viewBox="0 0 34 37" fill="none" xmlns="http://www.w3.org/2000/svg">
<circle cx="17" cy="20.6155" r="15.625" fill="#FEF3EB" stroke="#F3EFEB" stroke-width="1.25"/>
<path d="M20.4363 2.73326L18.4585 13.0074L25.6235 13.0313L15.8706 26.9595L17.8485 15.6562L10.6839 15.6315L20.4363 2.73326ZM20.4377 1.00005C20.3903 1.00005 20.343 1.00176 20.2966 1.0052C19.9872 1.02993 19.782 1.13219 19.5388 1.29381C19.4019 1.38408 19.2784 1.49289 19.172 1.61706C19.1401 1.65432 19.1099 1.69308 19.0817 1.73318L9.25913 14.5864C8.87127 15.112 8.8143 15.8057 9.11231 16.3855C9.40989 16.9653 10.0116 17.3327 10.6712 17.3375L15.7313 17.3739L14.1404 26.641C13.9892 27.4375 14.4187 28.2313 15.1747 28.5511C15.3944 28.6444 15.631 28.6925 15.8702 28.6923C16.421 28.6923 16.8738 28.4375 17.2134 27.9774L27.0483 14.0491C27.4361 13.5235 27.4927 12.8289 27.1951 12.25C26.8975 11.6702 26.2958 11.3027 25.6362 11.298L20.5762 11.2893L22.1499 3.14097C22.1833 3.00757 22.2001 2.87065 22.1999 2.73323C22.1999 1.79555 21.4448 1.0312 20.4999 1.00087C20.4789 1 20.4583 1 20.4377 1L20.4377 1.00005Z" fill="#EED0BA"/>
<path d="M20.4363 2.73326H20.4411M20.4363 2.73326L18.4585 13.0074L25.6235 13.0313L15.8706 26.9595L17.8485 15.6562L10.6839 15.6315L20.4363 2.73326ZM20.4377 1.00005C20.3903 1.00005 20.343 1.00176 20.2966 1.0052C19.9872 1.02993 19.782 1.13219 19.5388 1.29381C19.4019 1.38408 19.2784 1.49289 19.172 1.61706C19.1401 1.65432 19.1099 1.69308 19.0817 1.73318L9.25913 14.5864C8.87127 15.112 8.8143 15.8057 9.11231 16.3855C9.40989 16.9653 10.0116 17.3327 10.6712 17.3375L15.7313 17.3739L14.1404 26.641C13.9892 27.4375 14.4187 28.2313 15.1747 28.5511C15.3944 28.6444 15.631 28.6925 15.8702 28.6923C16.421 28.6923 16.8738 28.4375 17.2134 27.9774L27.0483 14.0491C27.4361 13.5235 27.4927 12.8289 27.1951 12.25C26.8975 11.6702 26.2958 11.3027 25.6362 11.298L20.5762 11.2893L22.1499 3.14097C22.1833 3.00757 22.2001 2.87065 22.1999 2.73323C22.1999 1.79555 21.4448 1.0312 20.4999 1.00087C20.4789 1 20.4583 1 20.4377 1L20.4377 1.00005Z" stroke="#FEF3EB"/>
</svg>
