<svg width="34" height="34" viewBox="0 0 34 34" fill="none" xmlns="http://www.w3.org/2000/svg">
<g clip-path="url(#clip0_2184_1078)">
<path d="M29.75 0H4.25C1.90638 0 0 1.90638 0 4.25V29.75C0 32.0936 1.90638 34 4.25 34H29.75C32.0936 34 34 32.0936 34 29.75V4.25C34 1.90638 32.0936 0 29.75 0ZM31.1656 25.6208L23.6058 18.061L25.0826 16.5842C25.9433 15.7235 26.4677 15.7235 27.3299 16.5842L31.1641 20.4183V25.6208H31.1656ZM4.25 2.83282H29.75C30.5312 2.83282 31.1672 3.4688 31.1672 4.25V16.413L29.3357 14.5815C27.3789 12.6231 25.0398 12.6231 23.083 14.5815L21.6062 16.0598L15.1701 9.62365C13.2132 7.66529 10.8742 7.66529 8.91736 9.62365L2.83588 15.7051V4.25C2.83588 3.4688 3.47185 2.83282 4.25306 2.83282H4.25ZM29.75 31.1656H4.25C3.4688 31.1656 2.83282 30.5297 2.83282 29.7485V19.7105L10.917 11.6263C11.7777 10.7656 12.3021 10.7656 13.1643 11.6263L31.1656 29.6277V29.75C31.1656 30.5312 30.5297 31.1672 29.7485 31.1672L29.75 31.1656Z" fill="#595959"/>
</g>
<defs>
<clipPath id="clip0_2184_1078">
<rect width="34" height="34" fill="white"/>
</clipPath>
</defs>
</svg>
