<svg width="22" height="21" viewBox="0 0 22 21" fill="none" xmlns="http://www.w3.org/2000/svg">
<path d="M11 3.56273e-07C13.4383 -0.000625764 15.8076 0.824032 17.7355 2.34433C19.6634 3.86462 21.0406 5.99433 21.6504 8.39863C22.2603 10.8029 22.0683 13.3455 21.1046 15.6265C20.141 17.9076 18.4603 19.7978 16.3268 21H5.67322C3.53973 19.7978 1.85903 17.9076 0.89536 15.6265C-0.0683118 13.3455 -0.260307 10.8029 0.34956 8.39863C0.959426 5.99433 2.33657 3.86462 4.26448 2.34433C6.19238 0.824032 8.56172 -0.000625764 11 3.56273e-07ZM17.2272 17.542C18.0474 16.7111 18.6977 15.7227 19.1404 14.6341C19.583 13.5455 19.8093 12.3783 19.806 11.2H17.8733V9.8H19.7002C19.5508 8.8213 19.2419 7.87491 18.786 7H16.4986V5.6H17.8788C16.8122 4.23473 15.3761 3.21791 13.7479 2.6754V4.2H12.3733V2.3394C11.4623 2.19509 10.5349 2.19509 9.62397 2.3394V4.2H8.24932V2.6754C6.62163 3.2188 5.18567 4.23545 4.11849 5.6H5.49864V7H3.21122C2.75538 7.87491 2.44641 8.8213 2.29707 9.8H4.12399V11.2H2.19123C2.19123 13.5954 3.10674 15.848 4.77007 17.542C4.99964 17.7758 5.24158 17.9956 5.49039 18.2H9.6226L10.4075 7H11.5856L12.3705 18.2H16.5027C16.7529 17.9956 16.9935 17.7758 17.2231 17.542H17.2272Z" fill="#C89869"/>
</svg>
