<svg width="16" height="16" viewBox="0 0 16 16" fill="none" xmlns="http://www.w3.org/2000/svg">
<g clip-path="url(#clip0_2451_9489)">
<path d="M15.3934 2.4518L13.5492 0.607534C13.158 0.216327 12.6379 0.000976562 12.0842 0.000976562C11.5306 0.000976562 11.0104 0.216327 10.6192 0.607534L1.01118 10.2148C0.359165 10.8676 0 11.7342 0 12.656V15.3095C0 15.691 0.30924 16.0002 0.69076 16.0002H3.34426C4.26677 16.0002 5.13413 15.6411 5.78539 14.9891L13.9531 6.82139L15.3934 5.38101C16.2004 4.57326 16.2004 3.25955 15.3934 2.45105V2.4518ZM4.80849 14.0129C4.41729 14.4041 3.89717 14.6195 3.34352 14.6195H1.38077V12.656C1.38077 12.1023 1.59613 11.5822 1.98733 11.191L9.66691 3.51215L12.4881 6.33332L4.80849 14.0129ZM14.4165 4.40485L13.4642 5.35716L10.6431 2.536L11.5954 1.58369C11.8562 1.32214 12.3107 1.32214 12.5715 1.58369L14.4158 3.42795C14.6848 3.6977 14.6848 4.13511 14.4158 4.40485H14.4165Z" fill="#666666" fill-opacity="0.8"/>
</g>
<defs>
<clipPath id="clip0_2451_9489">
<rect width="15.9985" height="16" fill="white"/>
</clipPath>
</defs>
</svg>
