<svg width="26" height="26" viewBox="0 0 26 26" fill="none" xmlns="http://www.w3.org/2000/svg">
<path d="M24.9971 18.8724L23.3887 17.2628C22.7426 16.6167 21.8837 16.2611 20.9693 16.2611C20.055 16.2611 19.196 16.6167 18.55 17.2628L17.8276 17.9839C17.5483 18.2633 17.1582 18.3777 16.7804 18.294C15.5842 18.0245 13.6498 17.1951 11.2267 14.7708C8.80368 12.3466 7.97302 10.4121 7.70352 9.21715C7.61861 8.84059 7.73429 8.44926 8.01363 8.16992L8.73599 7.44756C10.0687 6.11359 10.0687 3.94406 8.73599 2.61009L7.12638 1.00047C5.79241 -0.333491 3.62287 -0.333491 2.28768 1.00047L1.79298 1.49517C0.308883 2.98173 -0.307644 5.09097 0.146445 7.13622C0.994324 10.9597 3.80377 15.8464 6.9787 19.0213C10.1524 22.195 15.0391 25.0044 18.8626 25.8536C19.3056 25.952 19.751 26 20.1928 26C21.7926 26 23.3395 25.3699 24.5036 24.2058L24.9983 23.7111C25.6444 23.065 26 22.2061 26 21.2917C26 20.3774 25.6444 19.5185 24.9983 18.8736L24.9971 18.8724ZM23.3838 22.0978L22.8891 22.5925C21.9575 23.5228 20.6371 23.9092 19.3548 23.6262C16.4506 22.9813 11.8199 20.6383 8.58955 17.408C5.35801 14.1764 3.01619 9.54695 2.37259 6.64275C2.08832 5.36047 2.47473 4.04004 3.40629 3.10848L3.90099 2.61378C4.12373 2.39105 4.41538 2.28029 4.70703 2.28029C4.99868 2.28029 5.29156 2.39105 5.5143 2.61378L7.12268 4.22217C7.56693 4.66764 7.56693 5.39 7.12268 5.83548L6.40156 6.55661C5.56598 7.39095 5.22142 8.57232 5.47861 9.718C5.81456 11.207 6.80519 13.5735 9.61464 16.3829C12.4241 19.1924 14.7905 20.183 16.2795 20.5177C17.4228 20.7749 18.6054 20.4303 19.4397 19.596L20.1621 18.8749C20.5928 18.4429 21.3434 18.4441 21.7741 18.8749L23.3838 20.4845C23.5991 20.6998 23.7172 20.9866 23.7172 21.2905C23.7172 21.5945 23.5991 21.8812 23.3825 22.0978H23.3838Z" fill="#595959"/>
</svg>
