<svg width="9" height="5" viewBox="0 0 9 5" fill="none" xmlns="http://www.w3.org/2000/svg">
<path fill-rule="evenodd" clip-rule="evenodd" d="M5.88793 4.18927C5.84056 4.23213 5.80256 4.28382 5.77621 4.34125C5.74986 4.39868 5.73569 4.46068 5.73455 4.52355C5.73341 4.58641 5.74531 4.64885 5.76956 4.70715C5.79381 4.76545 5.82991 4.81841 5.87569 4.86287C5.92147 4.90733 5.97601 4.94238 6.03604 4.96592C6.09608 4.98947 6.16038 5.00104 6.22512 4.99993C6.28986 4.99882 6.3537 4.98506 6.41285 4.95947C6.47199 4.93388 6.52522 4.89698 6.56936 4.85098L8.65929 2.82214L9 2.49128L8.65929 2.16043L6.57 0.131583C6.47911 0.0462549 6.35734 -0.000992774 6.23092 1.56973e-05C6.10451 0.00102417 5.98355 0.0502084 5.89412 0.136975C5.80468 0.223741 5.75392 0.341148 5.75276 0.463907C5.7516 0.586666 5.80014 0.704956 5.88793 0.793298L7.15436 2.02309L0.482143 2.02309C0.354271 2.02309 0.231636 2.07242 0.141216 2.16022C0.0507964 2.24802 -1.0347e-07 2.36711 -1.08897e-07 2.49128C-1.14325e-07 2.61546 0.0507964 2.73454 0.141216 2.82235C0.231636 2.91015 0.354271 2.95948 0.482143 2.95948L7.15436 2.95948L5.88793 4.18927Z" fill="white"/>
</svg>
