<svg width="23" height="20" viewBox="0 0 23 20" fill="none" xmlns="http://www.w3.org/2000/svg">
<mask id="mask0_2025_2963" style="mask-type:luminance" maskUnits="userSpaceOnUse" x="0" y="0" width="23" height="20">
<path d="M18.0919 6.02695C18.7316 6.84896 19.1645 7.78589 19.3605 8.77285H21.7609V11.2271H19.3605C19.1645 12.2141 18.7316 13.151 18.0919 13.973L19.7899 15.4963L17.8551 17.2319L16.1571 15.7087C15.2407 16.2826 14.1963 16.6709 13.0961 16.8467V19H10.3601V16.8467C9.25991 16.6709 8.21546 16.2826 7.29913 15.7087L5.60108 17.2319L3.66625 15.4963L5.3643 13.973C4.72458 13.151 4.2917 12.2141 4.09566 11.2271H1.69531V8.77285H4.09566C4.2917 7.78589 4.72458 6.84896 5.3643 6.02695L3.66625 4.5037L5.60108 2.76805L7.29913 4.2913C8.21546 3.71743 9.25991 3.32912 10.3601 3.15325V1H13.0961V3.15325C14.1963 3.32912 15.2407 3.71743 16.1571 4.2913L17.8551 2.76805L19.7899 4.5037L18.0919 6.02695Z" fill="#555555" stroke="white" stroke-width="1.5" stroke-linejoin="round"/>
<path d="M11.7281 12.25C12.3933 12.25 13.0313 12.0129 13.5017 11.591C13.972 11.169 14.2363 10.5967 14.2363 10C14.2363 9.40326 13.972 8.83097 13.5017 8.40901C13.0313 7.98705 12.3933 7.75 11.7281 7.75C11.0629 7.75 10.4249 7.98705 9.95454 8.40901C9.48417 8.83097 9.21991 9.40326 9.21991 10C9.21991 10.5967 9.48417 11.169 9.95454 11.591C10.4249 12.0129 11.0629 12.25 11.7281 12.25Z" fill="#555555" stroke="white" stroke-width="1.5" stroke-linejoin="round"/>
</mask>
<g mask="url(#mask0_2025_2963)">
<path d="M-0.318542 -0.799927H23.7601V20.8001H-0.318542V-0.799927Z" fill="#6E7A8A"/>
</g>
</svg>
