<svg width="140" height="96" viewBox="0 0 140 96" fill="none" xmlns="http://www.w3.org/2000/svg">
<g clip-path="url(#clip0_58_2748)">
<path d="M0.249243 95.9466C0.249244 86.7746 2.05581 77.6923 5.56582 69.2184C9.07581 60.7446 14.2205 53.045 20.7061 46.5594C27.1918 40.0737 34.8913 34.9291 43.3652 31.4191C51.8391 27.9091 60.9213 26.1025 70.0934 26.1025C79.2654 26.1025 88.3477 27.9091 96.8216 31.4191C105.295 34.9291 112.995 40.0738 119.481 46.5594C125.966 53.045 131.111 60.7446 134.621 69.2185C138.131 77.6923 139.938 86.7746 139.938 95.9466L70.0934 95.9466L0.249243 95.9466Z" fill="url(#paint0_linear_58_2748)"/>
<path d="M45.143 11.8949V6.88047C45.143 6.43716 45.3191 6.01201 45.6325 5.69855C45.946 5.38509 46.3711 5.20898 46.8144 5.20898C47.2577 5.20898 47.6829 5.38509 47.9964 5.69855C48.3098 6.01201 48.4859 6.43716 48.4859 6.88047V11.8949C48.4859 12.3382 48.3098 12.7634 47.9964 13.0768C47.6829 13.3903 47.2577 13.5664 46.8144 13.5664C46.3711 13.5664 45.946 13.3903 45.6325 13.0768C45.3191 12.7634 45.143 12.3382 45.143 11.8949ZM46.8144 16.9094C44.1697 16.9094 41.5844 17.6936 39.3854 19.1629C37.1864 20.6323 35.4725 22.7207 34.4604 25.164C33.4484 27.6074 33.1836 30.2961 33.6995 32.89C34.2155 35.4838 35.489 37.8665 37.3591 39.7366C39.2292 41.6067 41.6118 42.8802 44.2057 43.3962C46.7996 43.9121 49.4882 43.6473 51.9316 42.6352C54.375 41.6231 56.4634 39.9092 57.9327 37.7102C59.4021 35.5113 60.1863 32.9259 60.1863 30.2812C60.1824 26.736 58.7724 23.337 56.2655 20.8302C53.7586 18.3233 50.3597 16.9132 46.8144 16.9094ZM32.26 18.0919C32.5736 18.4056 32.999 18.5818 33.4426 18.5818C33.8861 18.5818 34.3115 18.4056 34.6251 18.0919C34.9388 17.7783 35.115 17.3529 35.115 16.9094C35.115 16.4658 34.9388 16.0404 34.6251 15.7268L31.2822 12.3838C30.9685 12.0702 30.5432 11.894 30.0996 11.894C29.6561 11.894 29.2307 12.0702 28.917 12.3838C28.6034 12.6975 28.4272 13.1229 28.4272 13.5664C28.4272 14.01 28.6034 14.4353 28.917 14.749L32.26 18.0919ZM32.26 42.4705L28.917 45.8135C28.6034 46.1271 28.4272 46.5525 28.4272 46.9961C28.4272 47.4396 28.6034 47.865 28.917 48.1786C29.2307 48.4923 29.6561 48.6685 30.0996 48.6685C30.5432 48.6685 30.9685 48.4923 31.2822 48.1786L34.6251 44.8357C34.7804 44.6804 34.9036 44.496 34.9877 44.2931C35.0717 44.0902 35.115 43.8727 35.115 43.6531C35.115 43.4335 35.0717 43.216 34.9877 43.0131C34.9036 42.8102 34.7804 42.6258 34.6251 42.4705C34.4698 42.3152 34.2855 42.192 34.0826 42.108C33.8797 42.024 33.6622 41.9807 33.4426 41.9807C33.2229 41.9807 33.0055 42.024 32.8026 42.108C32.5997 42.192 32.4153 42.3152 32.26 42.4705ZM60.1863 18.5809C60.4059 18.581 60.6233 18.5379 60.8262 18.454C61.0291 18.3702 61.2135 18.2471 61.3689 18.0919L64.7118 14.749C65.0255 14.4353 65.2017 14.01 65.2017 13.5664C65.2017 13.1229 65.0255 12.6975 64.7118 12.3838C64.3982 12.0702 63.9728 11.894 63.5293 11.894C63.0857 11.894 62.6603 12.0702 62.3467 12.3838L59.0037 15.7268C58.7697 15.9606 58.6103 16.2585 58.5457 16.5829C58.4811 16.9073 58.5142 17.2436 58.6408 17.5492C58.7674 17.8548 58.9819 18.1159 59.257 18.2996C59.5321 18.4832 59.8555 18.5811 60.1863 18.5809ZM61.3689 42.4705C61.0552 42.1569 60.6299 41.9807 60.1863 41.9807C59.7428 41.9807 59.3174 42.1569 59.0037 42.4705C58.6901 42.7842 58.5139 43.2096 58.5139 43.6531C58.5139 44.0967 58.6901 44.522 59.0037 44.8357L62.3467 48.1786C62.502 48.3339 62.6864 48.4571 62.8893 48.5412C63.0922 48.6252 63.3097 48.6685 63.5293 48.6685C63.7489 48.6685 63.9664 48.6252 64.1693 48.5412C64.3722 48.4571 64.5566 48.3339 64.7118 48.1786C64.8671 48.0233 64.9903 47.839 65.0744 47.6361C65.1584 47.4332 65.2017 47.2157 65.2017 46.9961C65.2017 46.7764 65.1584 46.559 65.0744 46.3561C64.9903 46.1532 64.8671 45.9688 64.7118 45.8135L61.3689 42.4705ZM30.0996 30.2812C30.0996 29.8379 29.9235 29.4128 29.61 29.0993C29.2966 28.7859 28.8714 28.6098 28.4281 28.6098H23.4137C22.9704 28.6098 22.5452 28.7859 22.2318 29.0993C21.9183 29.4128 21.7422 29.8379 21.7422 30.2812C21.7422 30.7245 21.9183 31.1497 22.2318 31.4632C22.5452 31.7766 22.9704 31.9527 23.4137 31.9527H28.4281C28.8714 31.9527 29.2966 31.7766 29.61 31.4632C29.9235 31.1497 30.0996 30.7245 30.0996 30.2812ZM46.8144 46.9961C46.3711 46.9961 45.946 47.1722 45.6325 47.4856C45.3191 47.7991 45.143 48.2243 45.143 48.6676V53.682C45.143 54.1253 45.3191 54.5505 45.6325 54.8639C45.946 55.1774 46.3711 55.3535 46.8144 55.3535C47.2577 55.3535 47.6829 55.1774 47.9964 54.8639C48.3098 54.5505 48.4859 54.1253 48.4859 53.682V48.6676C48.4859 48.2243 48.3098 47.7991 47.9964 47.4856C47.6829 47.1722 47.2577 46.9961 46.8144 46.9961ZM70.2152 28.6098H65.2008C64.7575 28.6098 64.3323 28.7859 64.0188 29.0993C63.7054 29.4128 63.5293 29.8379 63.5293 30.2812C63.5293 30.7245 63.7054 31.1497 64.0188 31.4632C64.3323 31.7766 64.7575 31.9527 65.2008 31.9527H70.2152C70.6585 31.9527 71.0837 31.7766 71.3971 31.4632C71.7106 31.1497 71.8867 30.7245 71.8867 30.2812C71.8867 29.8379 71.7106 29.4128 71.3971 29.0993C71.0837 28.7859 70.6585 28.6098 70.2152 28.6098Z" fill="#E2BD76"/>
<path d="M116.051 62.7901C115.533 60.6942 114.12 58.8069 112.053 57.4506C109.985 56.0943 107.392 55.353 104.717 55.3535C100.26 55.3535 96.3891 57.3727 94.4614 60.3277C92.1948 60.5232 90.0987 61.3806 88.5758 62.7351C87.0529 64.0896 86.2107 65.8456 86.2109 67.6658C86.2109 71.7411 90.3593 75.0531 95.4638 75.0531H115.512C119.768 75.0531 123.222 72.2952 123.222 68.897C123.222 65.6466 120.061 63.0117 116.051 62.7901Z" fill="#DEDCE8"/>
<path d="M32.6347 75.6187C32.3005 73.7769 31.3887 72.1183 30.0549 70.9264C28.7212 69.7345 27.0483 69.0831 25.322 69.0835C22.4466 69.0835 19.9494 70.858 18.7057 73.4547C17.2434 73.6266 15.891 74.38 14.9085 75.5704C13.926 76.7607 13.3826 78.3038 13.3828 79.9034C13.3828 83.4847 16.0592 86.3953 19.3524 86.3953H32.2865C35.0325 86.3953 37.2611 83.9716 37.2611 80.9854C37.2611 78.1289 35.2215 75.8135 32.6347 75.6187Z" fill="#DEDCE8"/>
<path d="M121.385 75.7782C121.967 76.0945 122.432 76.5532 122.79 77.0956C123.372 77.9766 123.709 79.0665 123.981 80.2015C124.524 82.4717 124.839 84.9451 125.831 86.22C126.761 87.4166 127.807 87.9664 128.804 88.0788C129.234 88.1272 129.658 88.0931 130.063 87.9876C130.108 84.9032 128.749 81.4293 126.404 79.5474C129.146 80.9269 131.138 83.7118 131.568 87.1718L131.241 87.445C131.347 87.3718 131.45 87.2936 131.548 87.2107C133.103 85.9073 133.88 83.3243 132.263 80.4373C131.52 79.111 129.907 77.4257 127.794 76.4021C125.965 75.5165 123.777 75.1094 121.385 75.7783L121.385 75.7782ZM136.102 79.6289C136.234 80.1564 136.231 80.6966 136.121 81.2218C135.931 82.1397 135.459 83.0304 134.919 83.9065C133.839 85.6586 132.5 87.3924 132.322 88.7738C132.155 90.0824 132.456 91.0532 132.994 91.728C133.224 92.0169 133.506 92.2601 133.827 92.4451C135.754 90.5523 137.057 87.5738 136.78 84.9703C137.613 87.5114 137.12 90.4573 135.254 92.8694C136.989 92.9886 139.019 91.8772 139.802 89.1318C140.165 87.8598 140.217 85.822 139.551 83.89C138.985 82.2499 137.923 80.6846 136.102 79.629L136.102 79.6289ZM118.928 88.7028C119.16 90.7908 120.167 92.3938 121.442 93.5726C122.945 94.961 124.835 95.7367 126.148 95.9195C128.982 96.3142 130.82 94.9112 131.412 93.2794C128.446 94.0073 125.546 93.2673 123.552 91.4802C125.828 92.7854 129.086 92.7998 131.6 91.8058C131.561 91.4389 131.452 91.0829 131.28 90.7564C130.878 89.993 130.108 89.3257 128.84 88.9501C127.502 88.5537 125.372 89.0753 123.329 89.3527C122.307 89.4915 121.3 89.5628 120.381 89.3661C119.855 89.2534 119.358 89.0369 118.928 88.7028L118.928 88.7028Z" fill="#3D7D82"/>
<path d="M19.0844 75.4534C18.5027 75.7698 18.0377 76.2285 17.6796 76.7709C17.0979 77.6519 16.7607 78.7418 16.4889 79.8768C15.9455 82.147 15.6309 84.6204 14.6392 85.8953C13.7083 87.0918 12.6627 87.6417 11.6652 87.7541C11.2361 87.8025 10.8121 87.7684 10.4064 87.6629C10.3617 84.5785 11.7206 81.1046 14.0661 79.2227C11.3239 80.6022 9.33203 83.387 8.90138 86.8471L9.22828 87.1203C9.12227 87.0471 9.0198 86.9689 8.92124 86.886C7.36655 85.5825 6.5895 82.9996 8.20649 80.1126C8.94943 78.7863 10.5629 77.101 12.6761 76.0773C14.5044 75.1918 16.6922 74.7847 19.0844 75.4535L19.0844 75.4534ZM4.3679 79.3042C4.23546 79.8317 4.23906 80.3719 4.34823 80.897C4.53914 81.815 5.0111 82.7057 5.55101 83.5818C6.63087 85.3339 7.97005 87.0677 8.1472 88.4491C8.3149 89.7577 8.01347 90.7285 7.47563 91.4033C7.24565 91.6922 6.96326 91.9354 6.64307 92.1204C4.71568 90.2275 3.4123 87.2491 3.68997 84.6456C2.85652 87.1867 3.34983 90.1326 5.21601 92.5447C3.48021 92.6639 1.45061 91.5525 0.667541 88.8071C0.304781 87.5351 0.252696 85.4973 0.918995 83.5653C1.48464 81.9252 2.54703 80.3599 4.36782 79.3043L4.3679 79.3042ZM21.542 88.3781C21.3096 90.4661 20.3031 92.0691 19.0275 93.2479C17.5249 94.6363 15.6342 95.412 14.3212 95.5948C11.4874 95.9895 9.64956 94.5865 9.05748 92.9547C12.0232 93.6826 14.9239 92.9426 16.9173 91.1555C14.6416 92.4607 11.3838 92.4751 8.86918 91.4811C8.90912 91.1142 9.01781 90.7582 9.18962 90.4316C9.59124 89.6683 10.3616 89.001 11.6295 88.6254C12.9677 88.229 15.098 88.7506 17.1411 89.028C18.1626 89.1668 19.1696 89.2381 20.0886 89.0414C20.6146 88.9287 21.1114 88.7122 21.5419 88.3781L21.542 88.3781Z" fill="#3D7D82"/>
</g>
<defs>
<linearGradient id="paint0_linear_58_2748" x1="70.0934" y1="26.1025" x2="70.0934" y2="165.791" gradientUnits="userSpaceOnUse">
<stop stop-color="#4DBCD0"/>
<stop offset="1" stop-color="#42C1D4"/>
</linearGradient>
<clipPath id="clip0_58_2748">
<rect width="140" height="96" rx="11" fill="white"/>
</clipPath>
</defs>
</svg>
