<svg width="50" height="40" viewBox="0 0 50 40" fill="none" xmlns="http://www.w3.org/2000/svg">
<path d="M21.475 1.475C20.525 0.525 19.25 0 17.925 0H5C2.25 0 0.025 2.25 0.025 5L0 35C0 37.75 2.25 40 5 40H45C47.75 40 50 37.75 50 35V10C50 7.25 47.75 5 45 5H25L21.475 1.475Z" fill="#D4BAA8"/>
<path d="M35.0297 14.625H26.3215V12.8753C26.3215 12.3919 25.9315 12 25.4504 12C24.9693 12 24.5793 12.3919 24.5793 12.8753V14.625H15.8711C15.39 14.625 15 15.0169 15 15.5003C15 15.9838 15.39 16.3756 15.8711 16.3756H16.7422V30.375C16.7422 31.8225 17.914 33 19.3546 33H31.5453C32.9859 33 34.1577 31.8225 34.1577 30.375V16.3747H35.0288C35.5099 16.3747 35.8999 15.9828 35.8999 15.4994C35.8999 15.0159 35.5099 14.6241 35.0288 14.6241L35.0297 14.625ZM32.4173 30.375C32.4173 30.8575 32.0264 31.2503 31.5462 31.2503H19.3555C18.8753 31.2503 18.4844 30.8575 18.4844 30.375V16.3747H32.4164V30.3741L32.4173 30.375Z" fill="#F4F4F4"/>
<path d="M24.5801 19.4378V28.1881C24.5801 28.6716 24.9701 29.0634 25.4512 29.0634C25.9323 29.0634 26.3223 28.6716 26.3223 28.1881V19.4378C26.3223 18.9544 25.9323 18.5625 25.4512 18.5625C24.9701 18.5625 24.5801 18.9544 24.5801 19.4378Z" fill="#F4F4F4"/>
<path d="M29.3689 29.0625C29.85 29.0625 30.24 28.6706 30.24 28.1872V19.4368C30.24 18.9534 29.85 18.5615 29.3689 18.5615C28.8878 18.5615 28.4978 18.9534 28.4978 19.4368V28.1872C28.4978 28.6706 28.8878 29.0625 29.3689 29.0625Z" fill="#F4F4F4"/>
<path d="M21.5317 18.5625C21.0506 18.5625 20.6606 18.9544 20.6606 19.4378V28.1881C20.6606 28.6716 21.0506 29.0634 21.5317 29.0634C22.0129 29.0634 22.4028 28.6716 22.4028 28.1881V19.4378C22.4028 18.9544 22.0129 18.5625 21.5317 18.5625Z" fill="#F4F4F4"/>
</svg>
