<svg width="22" height="34" viewBox="0 0 22 34" fill="none" xmlns="http://www.w3.org/2000/svg">
<g clip-path="url(#clip0_2184_961)">
<path d="M2.41839 11.6261L9.22145 4.82308C9.21686 4.86894 9.20769 4.91175 9.20769 4.95914V26.917C9.20769 27.6997 9.84213 28.3341 10.6249 28.3341C11.4076 28.3341 12.042 27.6997 12.042 26.917V4.95761C12.042 4.91175 12.0329 4.86741 12.0283 4.82155L18.8313 11.6246C19.108 11.9013 19.4704 12.0389 19.8327 12.0389C20.195 12.0389 20.5573 11.9013 20.834 11.6246C21.3875 11.0712 21.3875 10.1753 20.834 9.62191L11.6262 0.414086C11.0728 -0.139331 10.1769 -0.139331 9.62352 0.414086L0.414163 9.62344C-0.139255 10.1769 -0.139255 11.0727 0.414163 11.6261C0.96758 12.1796 1.86344 12.1796 2.41686 11.6261H2.41839Z" fill="#595959"/>
<path d="M19.8328 31.1655H1.41718C0.634443 31.1655 0 31.8 0 32.5827C0 33.3654 0.634443 33.9999 1.41718 33.9999H19.8344C20.6171 33.9999 21.2515 33.3654 21.2515 32.5827C21.2515 31.8 20.6171 31.1655 19.8344 31.1655H19.8328Z" fill="#595959"/>
</g>
<defs>
<clipPath id="clip0_2184_961">
<rect width="21.25" height="34" fill="white"/>
</clipPath>
</defs>
</svg>
