<svg width="40" height="40" viewBox="0 0 40 40" fill="none" xmlns="http://www.w3.org/2000/svg">
<g clip-path="url(#clip0_2451_9459)">
<path d="M20 6.66727C16.3256 6.66727 13.3328 9.65827 13.3328 13.3345C13.3328 17.0108 16.3238 20.0018 20 20.0018C23.6763 20.0018 26.6673 17.0108 26.6673 13.3345C26.6673 9.65827 23.6763 6.66727 20 6.66727ZM20 16.6673C18.1583 16.6673 16.6673 15.1763 16.6673 13.3345C16.6673 11.4928 18.1583 10.0018 20 10.0018C21.8418 10.0018 23.3328 11.4928 23.3328 13.3345C23.3328 15.1763 21.8418 16.6673 20 16.6673Z" fill="#595959"/>
<path d="M20 0C8.95863 0 0 8.95863 0 20C0 31.0414 8.95863 40 20 40C31.0414 40 40 31.0414 40 20C40 8.95863 31.0414 0 20 0ZM20 37.0324C16 37.0324 12.241 35.5486 9.31655 32.8579C10.5252 27.9748 14.8831 24.5162 20 24.5162C22.9424 24.5162 25.7086 25.6655 27.7914 27.741C29.2158 29.1655 30.2086 30.9245 30.6835 32.8579C27.759 35.5504 24 37.0324 20 37.0324ZM33.2662 30.0665C32.5504 28.3255 31.5 26.741 30.1421 25.3831C27.4335 22.6745 23.8255 21.1835 20 21.1835C14.0576 21.1835 8.89928 24.7842 6.74101 30.0755C4.54137 27.1924 3.33273 23.6835 3.33273 20C3.33273 10.8094 10.8076 3.33273 20 3.33273C29.1924 3.33273 36.6673 10.8076 36.6673 20C36.6673 23.6745 35.4676 27.1745 33.268 30.0665H33.2662Z" fill="#595959"/>
</g>
<defs>
<clipPath id="clip0_2451_9459">
<rect width="40" height="40" fill="595959"/>
</clipPath>
</defs>
</svg>
