<svg width="40" height="40" viewBox="0 0 25 25" fill="#595959" xmlns="http://www.w3.org/2000/svg">
<g >
<path d="M12.5 0C5.60701 0 0 5.60701 0 12.5C0 19.393 5.60701 25 12.5 25C19.393 25 25 19.393 25 12.5C25 5.60701 19.393 0 12.5 0ZM12.5 22.9159C6.75697 22.9159 2.08296 18.243 2.08296 12.4989C2.08296 6.75472 6.75585 2.08296 12.5 2.08296C18.2442 2.08296 22.917 6.75585 22.917 12.5C22.917 18.2442 18.2442 22.917 12.5 22.917V22.9159Z" fill="#595959"/>
<path d="M11.3276 8.01708C11.0184 7.73493 10.8644 7.37072 10.8644 6.92333C10.8644 6.47594 11.0184 6.13196 11.3276 5.84981C11.6356 5.56766 12.0268 5.42603 12.5 5.42603C12.9733 5.42603 13.3633 5.56766 13.6724 5.84981C13.9804 6.13196 14.1356 6.49055 14.1356 6.92333C14.1356 7.35611 13.9804 7.73493 13.6724 8.01708C13.3633 8.29923 12.9733 8.44086 12.5 8.44086C12.0268 8.44086 11.6367 8.30035 11.3276 8.01708ZM11.259 10.8644C11.259 10.326 11.4625 9.94154 11.8694 9.71222C12.2763 9.48291 12.8934 9.36712 13.7219 9.36712V18.0755C13.7219 18.6005 13.5184 18.9816 13.1115 19.2187C12.7046 19.4548 12.0875 19.5728 11.259 19.5728V10.8644Z" fill="#595959"/>
</g>
<defs>
<clipPath id="clip0_2453_9617">
<rect width="25" height="25" fill="#595959"/>
</clipPath>
</defs>
</svg>
