<svg width="32" height="34" viewBox="0 0 32 34" fill="none" xmlns="http://www.w3.org/2000/svg">
<path d="M27.5583 16.4854V16.5779L27.6349 16.63C28.2906 17.0763 28.8745 17.582 29.3871 18.1469C29.9 18.7122 30.3421 19.3319 30.7134 20.0063C31.0834 20.6784 31.3554 21.3883 31.5296 22.1364C31.7045 22.8877 31.803 23.6555 31.825 24.44C31.8247 25.7333 31.5792 26.9485 31.0892 28.0871C30.598 29.229 29.9218 30.2226 29.0606 31.0696C28.1986 31.9173 27.2002 32.5859 26.0641 33.0756C24.9313 33.5638 23.7103 33.8141 22.399 33.825C21.4058 33.8249 20.4462 33.6781 19.5195 33.3849C18.5922 33.0915 17.7421 32.668 16.9685 32.1145C16.1937 31.5601 15.5058 30.8969 14.9048 30.124C14.3055 29.3534 13.8423 28.5013 13.5152 27.5672L13.4741 27.45H13.35H0.175V2.3H4.26667H4.44167V2.125V0.175H6.225V2.125V2.3H6.4H21.3333H21.5083V2.125V0.175H23.2917V2.125V2.3H23.4667H27.5583V16.4854ZM2.13333 4.075H1.95833V4.25V8.5V8.675H2.13333H25.6H25.775V8.5V4.25V4.075H25.6H23.4667H23.2917V4.25V6.2H21.5083V4.25V4.075H21.3333H6.4H6.225V4.25V6.2H4.44167V4.25V4.075H4.26667H2.13333ZM12.85 25.675H13.0428L13.0242 25.4831C12.9914 25.1459 12.975 24.7974 12.975 24.4375C12.975 23.1432 13.2205 21.9273 13.7108 20.7879C14.202 19.646 14.8782 18.6524 15.7394 17.8054C16.6014 16.9577 17.5998 16.2891 18.7359 15.7994C19.8686 15.3112 21.0895 15.061 22.4007 15.05C23.4919 15.0501 24.5384 15.2294 25.5411 15.5876L25.775 15.6712V15.4229V10.625V10.45H25.6H2.13333H1.95833V10.625V25.5V25.675H2.13333H12.85ZM30.0417 24.4394V24.4375C30.0417 23.3855 29.8428 22.3988 29.4439 21.4792C29.0464 20.5629 28.5006 19.7585 27.8068 19.0674C27.113 18.3763 26.3056 17.8328 25.3859 17.4369C24.4632 17.0398 23.4679 16.8363 22.4019 16.825H22.4C21.3442 16.825 20.3538 17.023 19.4308 17.4203C18.5111 17.8162 17.7036 18.3597 17.0098 19.0508C16.316 19.7419 15.7703 20.5463 15.3728 21.4626C14.974 22.3818 14.7697 23.3735 14.7583 24.4356V24.4375C14.7583 25.4895 14.9572 26.4762 15.3561 27.3958C15.7536 28.3121 16.2994 29.1165 16.9932 29.8076C17.687 30.4987 18.4944 31.0422 19.4142 31.4381C20.3368 31.8352 21.3321 32.0387 22.3981 32.05H22.4C23.4558 32.05 24.4462 31.852 25.3692 31.4547C26.2889 31.0588 27.0964 30.5153 27.7902 29.8242C28.484 29.1331 29.0297 28.3287 29.4272 27.4124C29.826 26.4932 30.0303 25.5015 30.0417 24.4394ZM23.2917 23.375V23.55H23.4667H26.4917V25.325H21.5083V19.3H23.2917V23.375Z" fill="#EDE9E4" stroke="#FEF3EB" stroke-width="0.35"/>
<circle cx="22.5" cy="24.5" r="9" fill="#FEF3EB" stroke="#EDD5C4"/>
<rect x="21" y="21" width="1" height="5" fill="#EDD5C4"/>
<rect x="26" y="25" width="1" height="5" transform="rotate(90 26 25)" fill="#EDD5C4"/>
</svg>
