<svg width="36" height="36" viewBox="0 0 36 36" fill="#595959" xmlns="http://www.w3.org/2000/svg">
<path d="M31.0867 5.9141H29.6044V1.48006C29.6044 0.667259 28.9422 3.05176e-05 28.122 3.05176e-05C27.3019 3.05176e-05 26.6397 0.661193 26.6397 1.48006V5.9141H8.888V1.48006C8.888 0.667259 8.2258 3.05176e-05 7.40565 3.05176e-05C6.5855 3.05176e-05 5.92331 0.661193 5.92331 1.48006V5.9141H4.44096C1.99266 5.9141 0 7.90365 0 10.3481V31.0261C0 33.4706 1.99266 35.4602 4.44096 35.4602H31.0746C33.5229 35.4602 35.5155 33.4706 35.5155 31.0261V10.3481C35.5155 7.90365 33.5229 5.9141 31.0746 5.9141H31.0867ZM4.45311 8.8681H31.0867C31.9008 8.8681 32.5691 9.52926 32.5691 10.3481V14.0422H2.97684V10.3481C2.97684 9.53533 3.63904 8.8681 4.45919 8.8681H4.45311ZM31.0867 32.5062H4.45311C3.63904 32.5062 2.97077 31.845 2.97077 31.0261V16.9901H32.563V31.0261C32.563 31.839 31.9008 32.5062 31.0807 32.5062H31.0867Z" fill="#595959"/>
<path d="M28.1281 26.5921H25.1694V29.5461H28.1281V26.5921Z" fill="#595959"/>
<path d="M10.3702 26.5921H7.41162V29.5461H10.3702V26.5921Z" fill="#595959"/>
<path d="M16.2875 26.5921H13.3289V29.5461H16.2875V26.5921Z" fill="#595959"/>
<path d="M22.2108 26.5921H19.2522V29.5461H22.2108V26.5921Z" fill="#595959"/>
<path d="M28.1281 19.9502H25.1694V22.9042H28.1281V19.9502Z" fill="#595959"/>
<path d="M10.3702 19.9502H7.41162V22.9042H10.3702V19.9502Z" fill="#595959"/>
<path d="M16.2875 19.9502H13.3289V22.9042H16.2875V19.9502Z" fill="#595959"/>
<path d="M22.2108 19.9502H19.2522V22.9042H22.2108V19.9502Z" fill="#595959"/>
</svg>
