<svg width="37" height="30" viewBox="0 0 37 30" fill="none" xmlns="http://www.w3.org/2000/svg">
<path d="M32.0314 4.14797H19.4558C19.2006 4.14797 18.9151 3.6991 18.508 3.01974C17.8944 2.00071 16.9649 0.453949 15.0209 0.453949H5.40385C3.08313 0.453949 0.962891 2.56482 0.962891 4.88798V25.566C0.962891 27.8467 3.11958 30 5.40385 30H32.0375C34.3217 30 36.4784 27.8467 36.4784 25.566V8.57594C36.4784 6.29523 34.3217 4.1419 32.0375 4.1419L32.0314 4.14797ZM33.5077 25.566C33.5077 26.2272 32.6936 27.046 32.0253 27.046H5.39171C4.72951 27.046 3.90936 26.2332 3.90936 25.566V4.88798C3.90936 4.18436 4.68091 3.40795 5.39171 3.40795H15.0087C15.2639 3.40795 15.5494 3.85681 15.9564 4.53617C16.57 5.55521 17.4995 7.10197 19.4436 7.10197H32.0192C32.6814 7.10197 33.5016 7.91477 33.5016 8.582V25.5721L33.5077 25.566Z" fill="#595959"/>
<path d="M28.3316 20.398H20.1969C19.3829 20.398 18.7146 21.0592 18.7146 21.878C18.7146 22.6969 19.3768 23.3581 20.1969 23.3581H28.3316C29.1457 23.3581 29.814 22.6969 29.814 21.878C29.814 21.0592 29.1518 20.398 28.3316 20.398Z" fill="#595959"/>
</svg>
