<svg width="30" height="36" viewBox="0 0 30 36" fill="none" xmlns="http://www.w3.org/2000/svg">
<path d="M25.5651 4.97392H21.4765C20.553 2.3778 18.0561 0.539886 15.2069 0.539886C12.3576 0.539886 9.86071 2.37173 8.93728 4.97392H4.84867C2.40037 4.97392 0.407715 6.96348 0.407715 9.40796V31.566C0.407715 34.0105 2.40037 36 4.84867 36H25.559C28.0073 36 30 34.0105 30 31.566V9.40796C30 6.96348 28.0073 4.97392 25.559 4.97392H25.5651ZM15.2069 3.49995C16.3976 3.49995 17.4668 4.08226 18.1473 4.97999H12.2665C12.9469 4.08226 14.0161 3.49995 15.2069 3.49995ZM27.0413 31.566C27.0413 32.3788 26.3792 33.046 25.559 33.046H4.84867C4.0346 33.046 3.36635 32.3849 3.36635 31.566V9.40796C3.36635 8.59515 4.02852 7.92792 4.84867 7.92792H25.559C26.3731 7.92792 27.0413 8.58909 27.0413 9.40796V31.566Z" fill="#595959"/>
<path d="M21.1242 12.362H9.28972C8.47565 12.362 7.80737 13.0231 7.80737 13.842C7.80737 14.6609 8.46957 15.322 9.28972 15.322H21.1242C21.9382 15.322 22.6065 14.6609 22.6065 13.842C22.6065 13.0231 21.9443 12.362 21.1242 12.362Z" fill="#595959"/>
<path d="M21.1242 19.01H9.28972C8.47565 19.01 7.80737 19.6711 7.80737 20.49C7.80737 21.3089 8.46957 21.97 9.28972 21.97H21.1242C21.9382 21.97 22.6065 21.3089 22.6065 20.49C22.6065 19.6711 21.9443 19.01 21.1242 19.01Z" fill="#595959"/>
<path d="M15.2069 25.658H9.28972C8.47565 25.658 7.80737 26.3192 7.80737 27.138C7.80737 27.9569 8.46957 28.6181 9.28972 28.6181H15.2069C16.021 28.6181 16.6893 27.9569 16.6893 27.138C16.6893 26.3192 16.0271 25.658 15.2069 25.658Z" fill="#595959"/>
</svg>
