<svg width="33" height="40" viewBox="0 0 33 40" fill="none" xmlns="http://www.w3.org/2000/svg">
<path d="M30.5964 7.94604L24.9465 2.19604C23.5539 0.778777 21.7036 0 19.7349 0H4.91295C2.20376 0 0 2.24281 0 5V35C0 37.7572 2.20376 40 4.91295 40H27.8395C30.5487 40 32.7525 37.7572 32.7525 35V13.25C32.7525 11.2464 31.9855 9.36331 30.5946 7.94604H30.5964ZM28.2813 10.3022C28.6719 10.6996 28.9705 11.1619 29.1738 11.6655H22.9283C22.0252 11.6655 21.2901 10.9173 21.2901 9.9982V3.64389C21.7849 3.85072 22.2408 4.15648 22.6296 4.55216L28.2796 10.3022H28.2813ZM27.843 36.6655H4.91649C4.01343 36.6655 3.27825 35.9173 3.27825 34.9982V5C3.27825 4.08094 4.01343 3.33273 4.91649 3.33273H18.0171V10C18.0171 12.7572 20.2209 15 22.9301 15H29.4813V35C29.4813 35.9191 28.7461 36.6673 27.843 36.6673V36.6655Z" fill="#5A7B8C"/>
</svg>
