<svg width="40" height="40" viewBox="0 0 40 40" fill="none" xmlns="http://www.w3.org/2000/svg">
<path d="M34.3907 0H4.91295C2.20376 0 0 2.24281 0 5V35C0 37.7572 2.20376 40 4.91295 40H34.3907C37.0999 40 39.3037 37.7572 39.3037 35V5C39.3037 2.24281 37.0999 0 34.3907 0ZM36.0272 30.1439L27.2881 21.25L28.9953 19.5126C29.9902 18.5 30.5964 18.5 31.5931 19.5126L36.0254 24.0234V30.1439H36.0272ZM4.91295 3.33453H34.3907C35.2938 3.33453 36.0289 4.08273 36.0289 5.0018V19.3112L33.9118 17.1565C31.6497 14.8525 28.9458 14.8525 26.6837 17.1565L24.9766 18.8957L17.5364 11.3237C15.2743 9.01978 12.5705 9.01978 10.3084 11.3237L3.27825 18.4784V5C3.27825 4.08094 4.01343 3.33273 4.91649 3.33273L4.91295 3.33453ZM34.3907 36.6673H4.91295C4.00989 36.6673 3.27472 35.9191 3.27472 35V23.1906L12.6199 13.6799C13.6149 12.6673 14.2211 12.6673 15.2178 13.6799L36.0272 34.8579V35.0018C36.0272 35.9209 35.292 36.6691 34.3889 36.6691L34.3907 36.6673Z" fill="#5A7B8C"/>
</svg>
