<svg width="33" height="40" viewBox="0 0 33 40" fill="none" xmlns="http://www.w3.org/2000/svg">
<path d="M30.5964 7.94604L24.9465 2.19604C23.5539 0.778777 21.7036 0 19.7349 0H4.91295C2.20376 0 0 2.24281 0 5V35C0 37.7572 2.20376 40 4.91295 40H27.8395C30.5487 40 32.7525 37.7572 32.7525 35V13.25C32.7525 11.2464 31.9855 9.36331 30.5946 7.94604H30.5964ZM28.2813 10.3022C28.6719 10.6996 28.9705 11.1619 29.1738 11.6655H22.9283C22.0252 11.6655 21.2901 10.9173 21.2901 9.9982V3.64389C21.7849 3.85072 22.2408 4.15648 22.6296 4.55216L28.2796 10.3022H28.2813ZM27.843 36.6655H4.91649C4.01343 36.6655 3.27825 35.9173 3.27825 34.9982V5C3.27825 4.08094 4.01343 3.33273 4.91649 3.33273H18.0171V10C18.0171 12.7572 20.2209 15 22.9301 15H29.4813V35C29.4813 35.9191 28.7461 36.6673 27.843 36.6673V36.6655Z" fill="#5A7B8C"/>
<path d="M4.65137 27.4214C4.65137 27.1966 4.73266 27.0095 4.89348 26.8585C5.0543 26.7074 5.25754 26.6318 5.50495 26.6318H9.04298C9.65445 26.6318 10.1952 26.7541 10.6653 27.0005C11.1354 27.2469 11.5012 27.5959 11.7592 28.0491C12.0173 28.5023 12.148 29.0275 12.148 29.6228C12.148 30.2182 12.0208 30.7559 11.7663 31.2092C11.5118 31.6624 11.1513 32.0113 10.6848 32.2577C10.2182 32.5041 9.67035 32.6264 9.04298 32.6264H6.35853V34.5293C6.35853 34.943 6.21185 35.2613 5.92025 35.4808C5.62866 35.7002 5.20628 35.8117 4.65489 35.8117V27.4196L4.65137 27.4214ZM9.04121 31.1246C9.49009 31.1246 9.83825 30.9915 10.0839 30.7236C10.3295 30.4556 10.4533 30.0851 10.4533 29.6103C10.4533 29.1354 10.3278 28.7811 10.0786 28.5221C9.82764 28.2631 9.48302 28.1336 9.04121 28.1336H6.35676V31.1246H9.04121Z" fill="#5A7B8C"/>
<path d="M13.5018 35.467C13.3357 35.316 13.2544 35.1289 13.2544 34.9041V27.4185C13.2544 27.1937 13.3357 27.0066 13.4965 26.8555C13.6573 26.7044 13.8606 26.6289 14.108 26.6289H16.932C17.6867 26.6289 18.3547 26.7764 18.9361 27.0696C19.5175 27.3627 19.9664 27.7746 20.2845 28.307C20.6026 28.8375 20.7617 29.4437 20.7617 30.1271V32.1739C20.7617 32.8555 20.6009 33.4652 20.2774 33.9994C19.954 34.5354 19.5034 34.9508 18.922 35.2494C18.3405 35.548 17.6778 35.6955 16.9303 35.6955H14.1062C13.8694 35.6955 13.6679 35.6199 13.5018 35.4688V35.467ZM16.803 34.2044C17.5417 34.2044 18.1002 34.0336 18.4819 33.6937C18.8637 33.3519 19.0545 32.8501 19.0545 32.1847V30.1001C19.0545 29.4526 18.8637 28.9598 18.4819 28.6235C18.1002 28.2872 17.54 28.1181 16.803 28.1181H14.958V34.2044H16.803Z" fill="#5A7B8C"/>
<path d="M21.905 27.4203C21.905 27.2044 21.988 27.0192 22.1524 26.8627C22.3185 26.708 22.52 26.6289 22.7568 26.6289H28.5216C28.5216 27.1469 28.435 27.5246 28.26 27.762C28.0868 27.9994 27.804 28.1181 27.4135 28.1181H23.6086V30.307H26.9929C26.9929 30.8249 26.9063 31.2026 26.7313 31.4401C26.5581 31.6775 26.2754 31.7962 25.8848 31.7962H23.6068V34.5803C23.6068 35.012 23.4707 35.3249 23.2004 35.5192C22.9282 35.7134 22.497 35.8106 21.9032 35.8106V27.4185L21.905 27.4203Z" fill="#5A7B8C"/>
</svg>
