<svg width="40" height="40" viewBox="0 0 40 40" fill="none" xmlns="http://www.w3.org/2000/svg">
<path d="M34.4527 0H4.92181C2.20773 0 0 2.69189 0 6V34C0 37.3081 2.20773 40 4.92181 40H34.4527C37.1667 40 39.3745 37.3081 39.3745 34V6C39.3745 2.69189 37.1667 0 34.4527 0ZM7.38271 18H3.28062V13H7.38271V18ZM3.28062 22H7.38271V27H3.28062V22ZM10.6633 4H28.7094V36H10.6633V4ZM36.0921 18H31.99V13H36.0921V18ZM31.9918 22H36.0939V27H31.9918V22ZM36.0921 6V9H31.99V4H34.4509C35.3556 4 36.0921 4.8973 36.0921 6ZM4.92181 4H7.38271V9H3.28062V6C3.28062 4.8973 4.01712 4 4.92181 4ZM3.28062 34V31H7.38271V36H4.92181C4.01712 36 3.28062 35.1027 3.28062 34ZM34.4527 36H31.9918V31H36.0939V34C36.0939 35.1027 35.3574 36 34.4527 36Z" fill="#5A7B8C"/>
</svg>
