<svg width="36" height="36" viewBox="0 0 36 36" fill="none" xmlns="http://www.w3.org/2000/svg">
<path d="M31.0746 7.55916H29.5922V4.43532C29.5922 2.97955 28.8754 1.62083 27.6846 0.789828C26.4878 -0.0351088 24.9569 -0.229212 23.596 0.280308L4.13113 7.56523C1.82863 7.72294 0 9.6397 0 11.9811V31.1851C0 33.6296 1.99266 35.6191 4.44096 35.6191H31.0746C33.5229 35.6191 35.5155 33.6296 35.5155 31.1851V11.9811C35.5155 9.53659 33.5229 7.54703 31.0746 7.54703V7.55916ZM24.6349 3.05234C25.0966 2.87643 25.5948 2.94316 25.9957 3.22218C26.4028 3.5012 26.6336 3.944 26.6336 4.43532V7.55916H12.5999L24.6349 3.05234ZM31.0746 32.6712H4.44096C3.62688 32.6712 2.95861 32.0101 2.95861 31.1912V11.9871C2.95861 11.1743 3.62081 10.5071 4.44096 10.5071H31.0746C31.8887 10.5071 32.5569 11.1683 32.5569 11.9871V17.1551H25.1574C22.709 17.1551 20.7164 19.1447 20.7164 21.5892C20.7164 24.0336 22.709 26.0232 25.1574 26.0232H32.5569V31.1912C32.5569 32.004 31.8947 32.6712 31.0746 32.6712ZM32.5508 23.0692H25.1513C24.3372 23.0692 23.6689 22.408 23.6689 21.5892C23.6689 20.7703 24.3311 20.1091 25.1513 20.1091H32.5508V23.0631V23.0692Z" fill="white"/>
</svg>
